# Blender v2.78 (sub 0) OBJ File: ''
# www.blender.org
mtllib cube.mtl
o Cube
v 1.000000 -1.000000 -1.000000
v 1.000000 -1.000000 1.000000
v -1.000000 -1.000000 1.000000
v -1.000000 -1.000000 -1.000000
v 1.000000 1.000000 -0.999999
v 0.999999 1.000000 1.000001
v -1.000000 1.000000 1.000000
v -1.000000 1.000000 -1.000000
vt -0.0021 0.0010
vt 0.9990 1.0021
vt -0.0021 1.0021
vt 0.0060 0.9908
vt 1.0032 -0.0064
vt 1.0032 0.9908
vt 1.0016 0.9970
vt -0.0048 -0.0094
vt 1.0016 -0.0094
vt 1.0002 1.0002
vt -0.0002 -0.0002
vt 1.0002 -0.0002
vt 0.0039 1.0054
vt 1.0054 0.0039
vt 1.0054 1.0054
vt 0.9997 1.0012
vt -0.0059 -0.0044
vt 0.9997 -0.0044
vt 0.9990 0.0010
vt 0.0060 -0.0064
vt -0.0048 0.9970
vt -0.0002 1.0002
vt 0.0039 0.0039
vt -0.0059 1.0012
vn 0.0000 -1.0000 0.0000
vn 0.0000 1.0000 0.0000
vn 1.0000 -0.0000 0.0000
vn 0.0000 -0.0000 1.0000
vn -1.0000 -0.0000 -0.0000
vn 0.0000 0.0000 -1.0000
usemtl Material
s off
f 1/1/1 3/2/1 4/3/1
f 8/4/2 6/5/2 5/6/2
f 5/7/3 2/8/3 1/9/3
f 6/10/4 3/11/4 2/12/4
f 3/13/5 8/14/5 4/15/5
f 1/16/6 8/17/6 5/18/6
f 1/1/1 2/19/1 3/2/1
f 8/4/2 7/20/2 6/5/2
f 5/7/3 6/21/3 2/8/3
f 6/10/4 7/22/4 3/11/4
f 3/13/5 7/23/5 8/14/5
f 1/16/6 4/24/6 8/17/6
